<?xml version="1.0" encoding="UTF-8" standalone="no"?>
<!DOCTYPE svg PUBLIC "-//W3C//DTD SVG 1.1//EN" "http://www.w3.org/Graphics/SVG/1.1/DTD/svg11.dtd">
<svg width="100%" height="100%" viewBox="0 0 7965 1667" version="1.1" xmlns="http://www.w3.org/2000/svg" xmlns:xlink="http://www.w3.org/1999/xlink" xml:space="preserve" xmlns:serif="http://www.serif.com/" style="fill-rule:evenodd;clip-rule:evenodd;stroke-linejoin:round;stroke-miterlimit:2;">
    <g transform="matrix(4.16667,0,0,4.16667,-17.8958,-13.825)">
        <path d="M98.356,276.841C107.538,276.841 116.068,275.07 123.938,271.527C131.81,267.986 138.562,263.2 144.207,257.162C149.846,251.13 154.243,243.916 157.392,235.516C160.54,227.122 162.115,218.072 162.115,208.361C162.115,198.392 160.602,189.213 157.588,180.812C154.569,172.418 150.239,165.205 144.601,159.167C138.956,153.135 132.265,148.342 124.529,144.802C116.787,141.259 108.196,139.487 98.751,139.487C89.305,139.487 80.647,141.197 72.776,144.604C64.904,148.017 58.017,152.739 52.113,158.771C46.21,164.812 41.617,172.025 38.339,180.417C35.055,188.817 33.419,198 33.419,207.968C33.419,217.942 35.055,227.122 38.339,235.516C41.617,243.916 46.143,251.198 51.917,257.36C57.685,263.528 64.572,268.317 72.578,271.724C80.579,275.137 89.169,276.841 98.356,276.841ZM35.781,116.66L35.781,147.752L36.175,147.752C44.832,135.158 54.868,125.911 66.282,120.006C77.695,114.103 89.958,111.151 103.08,111.151C116.197,111.151 128.328,113.649 139.484,118.63C150.633,123.617 160.207,130.502 168.215,139.292C176.215,148.085 182.511,158.378 187.104,170.186C191.693,181.993 193.993,194.722 193.993,208.361C193.993,222.005 191.693,234.731 187.104,246.535C182.511,258.343 176.215,268.577 168.215,277.234C160.207,285.891 150.701,292.65 139.68,297.501C128.66,302.355 116.855,304.782 104.261,304.782C90.614,304.782 78.088,301.959 66.676,296.32C55.262,290.683 45.091,281.432 36.175,268.577L35.781,268.577L35.781,403.173L4.295,403.173L4.295,116.66L35.781,116.66Z" style="fill-rule:nonzero;"/>
    </g>
    <g transform="matrix(4.16667,0,0,4.16667,-17.8958,-13.825)">
        <path d="M230.841,116.66L262.325,116.66L262.325,139.487L263.113,139.487C268.881,130.83 274.852,124.01 281.02,119.023C287.182,114.041 294.992,111.547 304.437,111.547C314.14,111.547 324.244,114.564 334.74,120.596L320.179,149.325C313.617,144.604 306.404,142.242 298.533,142.242C287.514,142.242 278.72,146.966 272.165,156.412C265.603,165.857 262.325,180.417 262.325,200.096L262.325,300.061L230.841,300.061L230.841,116.66Z" style="fill-rule:nonzero;"/>
    </g>
    <g transform="matrix(4.16667,0,0,4.16667,-17.8958,-13.825)">
        <rect x="364.253" y="116.66" width="31.484" height="183.401" style="fill-rule:nonzero;"/>
    </g>
    <g transform="matrix(4.16667,0,0,4.16667,-17.8958,-13.825)">
        <path d="M452.8,116.66L484.284,116.66L484.284,141.061L484.678,141.061C489.659,133.192 496.023,126.303 503.766,120.402C511.501,114.496 522.065,111.547 535.447,111.547C548.042,111.547 558.533,114.239 566.931,119.613C575.326,124.993 582.017,133.585 587.003,145.392L587.397,145.392C593.43,135.687 601.104,127.62 610.421,121.187C619.73,114.762 631.34,111.547 645.25,111.547C665.715,111.547 681.261,117.585 691.887,129.649C702.514,141.719 707.825,160.088 707.825,184.748L707.825,300.061L676.341,300.061L676.341,193.013C676.341,174.122 673.254,160.543 667.092,152.278C660.926,144.013 651.282,139.88 638.167,139.88C623.999,139.88 613.434,144.802 606.485,154.64C599.53,164.478 596.055,178.586 596.055,196.948L596.055,300.061L564.571,300.061L564.571,190.258C564.571,156.675 552.106,139.88 527.183,139.88C513.015,139.88 502.32,144.87 495.107,154.838C487.888,164.812 484.284,179.239 484.284,198.127L484.284,300.061L452.8,300.061L452.8,116.66Z" style="fill-rule:nonzero;"/>
    </g>
    <g transform="matrix(4.16667,0,0,4.16667,-17.8958,-13.825)">
        <path d="M782.208,188.288L890.83,188.288C889.515,174.65 884.139,163.17 874.694,153.852C865.249,144.542 852.784,139.88 837.306,139.88C822.351,139.88 810.083,144.406 800.509,153.459C790.928,162.512 784.827,174.122 782.208,188.288ZM836.912,111.547C850.552,111.547 862.752,113.906 873.514,118.63C884.27,123.351 893.321,129.98 900.67,138.504C908.012,147.034 913.589,157.002 917.395,168.414C921.195,179.826 923.103,192.224 923.103,205.606L923.103,214.263L780.24,214.263C780.499,223.451 782.073,231.914 784.963,239.65C787.846,247.391 791.782,254.014 796.77,259.524C801.75,265.033 807.789,269.362 814.874,272.51C821.957,275.66 829.957,277.234 838.88,277.234C851.474,277.234 862.033,274.479 870.562,268.969C879.084,263.46 886.501,255.458 892.798,244.962L918.772,260.705C910.372,274.872 899.617,285.891 886.501,293.763C873.378,301.635 857.114,305.571 837.7,305.571C824.055,305.571 811.725,303.208 800.705,298.487C789.686,293.763 780.24,287.14 772.369,278.61C764.497,270.089 758.397,259.855 754.068,247.914C749.74,235.977 747.575,222.793 747.575,208.361C747.575,194.194 749.74,181.205 754.068,169.398C758.397,157.593 764.497,147.359 772.369,138.702C780.24,130.042 789.618,123.351 800.509,118.63C811.392,113.906 823.532,111.547 836.912,111.547Z" style="fill-rule:nonzero;"/>
    </g>
    <g transform="matrix(4.16667,0,0,4.16667,-17.8958,-13.825)">
        <path d="M957.798,112.724L1006.21,112.724L1054.61,222.135L1103.02,112.724L1151.82,112.724L1054.61,311.865L1053.83,311.865L957.798,112.724Z" style="fill:rgb(238,39,40);fill-rule:nonzero;"/>
    </g>
    <g transform="matrix(4.16667,0,0,4.16667,-17.8958,-13.825)">
        <path d="M1170.31,31.259C1170.31,23.653 1173.07,17.092 1178.58,11.582C1184.09,6.073 1190.64,3.318 1198.26,3.318C1206.13,3.318 1212.88,6.073 1218.53,11.582C1224.17,17.092 1226.99,23.653 1226.99,31.259C1226.99,38.874 1224.23,45.496 1218.72,51.133C1213.21,56.779 1206.52,59.595 1198.65,59.595C1190.51,59.595 1183.76,56.779 1178.38,51.133C1173,45.496 1170.31,38.874 1170.31,31.259Z" style="fill:rgb(238,39,40);fill-rule:nonzero;"/>
    </g>
    <g transform="matrix(4.16667,0,0,4.16667,-17.8958,-13.825)">
        <path d="M351.659,31.259C351.659,23.653 354.414,17.092 359.923,11.582C365.434,6.073 371.989,3.318 379.601,3.318C387.473,3.318 394.226,6.073 399.87,11.582C405.509,17.092 408.332,23.653 408.332,31.259C408.332,38.874 405.577,45.496 400.067,51.133C394.558,56.779 387.867,59.595 379.995,59.595C371.859,59.595 365.102,56.779 359.727,51.133C354.346,45.496 351.659,38.874 351.659,31.259Z" style="fill:rgb(238,39,40);fill-rule:nonzero;"/>
    </g>
    <g transform="matrix(4.16667,0,0,4.16667,-17.8958,-13.825)">
        <rect x="1177" y="112.724" width="43.3" height="187.337" style="fill:rgb(238,39,40);fill-rule:nonzero;"/>
    </g>
    <g transform="matrix(4.16667,0,0,4.16667,-17.8958,-13.825)">
        <path d="M1253.75,268.577L1286.41,243.781C1290.35,250.607 1295.2,256.049 1300.97,260.115C1306.74,264.183 1313.57,266.215 1321.44,266.215C1328.52,266.215 1334.03,264.709 1337.97,261.688C1341.9,258.674 1343.87,254.277 1343.87,248.505C1343.87,245.62 1343.28,242.995 1342.1,240.633C1340.92,238.271 1338.88,235.908 1336,233.55C1333.11,231.187 1329.18,228.696 1324.19,226.071C1319.21,223.451 1312.91,220.431 1305.3,217.018C1289.3,209.677 1278.01,201.608 1271.46,192.815C1264.89,184.028 1261.62,173.333 1261.62,160.74C1261.62,152.612 1263.19,145.262 1266.34,138.702C1269.49,132.144 1273.75,126.567 1279.13,121.975C1284.51,117.387 1290.8,113.844 1298.02,111.348C1305.24,108.857 1313.04,107.611 1321.44,107.611C1335.08,107.611 1346.95,110.106 1357.06,115.087C1367.15,120.073 1375.09,126.764 1380.87,135.158L1348.99,160.74C1346.1,157.07 1342.1,153.79 1336.99,150.902C1331.87,148.017 1326.55,146.571 1321.04,146.571C1315.54,146.571 1311.21,147.752 1308.06,150.114C1304.91,152.476 1303.33,155.623 1303.33,159.559C1303.33,161.661 1303.86,163.631 1304.91,165.462C1305.95,167.301 1307.92,169.271 1310.81,171.367C1313.7,173.469 1317.7,175.831 1322.82,178.45C1327.93,181.075 1334.55,184.226 1342.69,187.896C1359.22,195.508 1370.5,203.834 1376.54,212.887C1382.57,221.94 1385.59,232.761 1385.59,245.354C1385.59,254.543 1384.01,262.869 1380.87,270.345C1377.72,277.824 1373.25,284.187 1367.49,289.434C1361.71,294.687 1354.89,298.682 1347.02,301.437C1339.15,304.192 1330.62,305.571 1321.44,305.571C1303.59,305.571 1289.03,301.764 1277.75,294.156C1266.47,286.55 1258.47,278.019 1253.75,268.577Z" style="fill:rgb(238,39,40);fill-rule:nonzero;"/>
    </g>
    <g transform="matrix(4.16667,0,0,4.16667,-17.8958,-13.825)">
        <path d="M1417.86,31.259C1417.86,23.653 1420.61,17.092 1426.12,11.582C1431.63,6.073 1438.19,3.318 1445.8,3.318C1453.67,3.318 1460.42,6.073 1466.07,11.582C1471.71,17.092 1474.53,23.653 1474.53,31.259C1474.53,38.874 1471.77,45.496 1466.26,51.133C1460.75,56.779 1454.06,59.595 1446.19,59.595C1438.06,59.595 1431.3,56.779 1425.92,51.133C1420.54,45.496 1417.86,38.874 1417.86,31.259Z" style="fill:rgb(238,39,40);fill-rule:nonzero;"/>
    </g>
    <g transform="matrix(4.16667,0,0,4.16667,-17.8958,-13.825)">
        <rect x="1424.55" y="112.724" width="43.29" height="187.337" style="fill:rgb(238,39,40);fill-rule:nonzero;"/>
    </g>
    <g transform="matrix(4.16667,0,0,4.16667,-17.8958,-13.825)">
        <path d="M1553.63,205.998C1553.63,224.633 1558.61,239.452 1568.59,250.471C1578.56,261.49 1592.07,267 1609.12,267C1625.91,267 1639.43,261.49 1649.66,250.471C1659.89,239.452 1665.01,224.889 1665.01,206.787C1665.01,188.947 1659.96,174.452 1649.86,163.297C1639.75,152.148 1626.18,146.571 1609.12,146.571C1600.99,146.571 1593.51,148.017 1586.69,150.902C1579.87,153.79 1573.96,157.924 1568.98,163.297C1563.99,168.68 1560.19,174.975 1557.57,182.188C1554.94,189.407 1553.63,197.341 1553.63,205.998ZM1509.55,205.213C1509.55,191.832 1511.91,179.239 1516.64,167.431C1521.36,155.623 1528.11,145.33 1536.91,136.534C1545.69,127.747 1556.19,120.732 1568.39,115.479C1580.59,110.236 1594.17,107.611 1609.12,107.611C1624.08,107.611 1637.66,110.168 1649.86,115.284C1662.06,120.402 1672.55,127.423 1681.34,136.34C1690.13,145.262 1696.95,155.759 1701.81,167.824C1706.66,179.894 1709.09,192.883 1709.09,206.787C1709.09,220.697 1706.66,233.682 1701.81,245.75C1696.95,257.82 1690.13,268.249 1681.34,277.036C1672.55,285.829 1661.99,292.78 1649.66,297.896C1637.32,303.011 1623.55,305.571 1608.34,305.571C1593.64,305.571 1580.2,303.011 1568,297.896C1555.8,292.78 1545.37,285.764 1536.71,276.841C1528.05,267.924 1521.36,257.299 1516.64,244.962C1511.91,232.631 1509.55,219.38 1509.55,205.213Z" style="fill:rgb(238,39,40);fill-rule:nonzero;"/>
    </g>
    <g transform="matrix(4.16667,0,0,4.16667,-17.8958,-13.825)">
        <path d="M1793.7,112.724L1793.7,132.797L1794.49,132.797C1801.31,124.925 1809.25,118.765 1818.3,114.301C1827.35,109.843 1838.3,107.611 1851.16,107.611C1872.94,107.611 1889.14,114.366 1899.77,127.878C1910.39,141.395 1915.7,160.481 1915.7,185.141L1915.7,300.061L1872.41,300.061L1872.41,195.372C1872.41,177.269 1869.52,164.614 1863.75,157.395C1857.98,150.182 1849.06,146.571 1836.99,146.571C1823.61,146.571 1813.05,151.035 1805.31,159.952C1797.57,168.875 1793.7,184.226 1793.7,205.998L1793.7,300.061L1750.41,300.061L1750.41,112.724L1793.7,112.724Z" style="fill:rgb(238,39,40);fill-rule:nonzero;"/>
    </g>
</svg>
