<?xml version="1.0" encoding="utf-8"?>
<!-- Generator: Adobe Illustrator 25.4.0, SVG Export Plug-In . SVG Version: 6.00 Build 0)  -->
<svg version="1.0" id="Layer_1" xmlns="http://www.w3.org/2000/svg" xmlns:xlink="http://www.w3.org/1999/xlink" x="0px" y="0px"
	 viewBox="0 0 1920 405.5" style="enable-background:new 0 0 1920 405.5;" xml:space="preserve">
<style type="text/css">
	.st0{fill:#E51515;}
</style>
<g>
	<g>
		<path d="M35.8,116.2v31.1h0.4c8.7-12.6,18.7-21.8,30.1-27.7c11.4-5.9,23.7-8.9,36.8-8.9c13.1,0,25.2,2.5,36.4,7.5
			c11.1,5,20.7,11.9,28.7,20.7c8,8.8,14.3,19.1,18.9,30.9c4.6,11.8,6.9,24.5,6.9,38.2c0,13.6-2.3,26.4-6.9,38.2
			c-4.6,11.8-10.9,22-18.9,30.7c-8,8.7-17.5,15.4-28.5,20.3c-11,4.9-22.8,7.3-35.4,7.3c-13.6,0-26.2-2.8-37.6-8.5
			c-11.4-5.6-21.6-14.9-30.5-27.7h-0.4v134.6H4.3V116.2H35.8z M98.4,276.4c9.2,0,17.7-1.8,25.6-5.3c7.9-3.5,14.6-8.3,20.3-14.4
			c5.6-6,10-13.2,13.2-21.6c3.1-8.4,4.7-17.4,4.7-27.2c0-10-1.5-19.1-4.5-27.5c-3-8.4-7.3-15.6-13-21.6c-5.6-6-12.3-10.8-20.1-14.4
			c-7.7-3.5-16.3-5.3-25.8-5.3s-18.1,1.7-26,5.1c-7.9,3.4-14.8,8.1-20.7,14.2c-5.9,6-10.5,13.3-13.8,21.6
			c-3.3,8.4-4.9,17.6-4.9,27.6c0,10,1.6,19.2,4.9,27.5c3.3,8.4,7.8,15.7,13.6,21.8c5.8,6.2,12.7,11,20.7,14.4
			C80.6,274.6,89.2,276.4,98.4,276.4z"/>
		<path d="M230.8,116.2h31.5V139h0.8c5.8-8.7,11.7-15.5,17.9-20.5c6.2-5,14-7.5,23.4-7.5c9.7,0,19.8,3,30.3,9l-14.6,28.7
			c-6.6-4.7-13.8-7.1-21.6-7.1c-11,0-19.8,4.7-26.4,14.2c-6.6,9.4-9.8,24-9.8,43.7v100h-31.5V116.2z"/>
		<path d="M395.7,116.2v183.4h-31.5V116.2H395.7z"/>
		<path d="M452.8,116.2h31.5v24.4h0.4c5-7.9,11.3-14.8,19.1-20.7c7.7-5.9,18.3-8.9,31.7-8.9c12.6,0,23.1,2.7,31.5,8.1
			c8.4,5.4,15.1,14,20.1,25.8h0.4c6-9.7,13.7-17.8,23-24.2c9.3-6.4,20.9-9.6,34.8-9.6c20.5,0,36,6,46.6,18.1
			c10.6,12.1,15.9,30.4,15.9,55.1v115.3h-31.5v-107c0-18.9-3.1-32.5-9.2-40.7c-6.2-8.3-15.8-12.4-28.9-12.4
			c-14.2,0-24.7,4.9-31.7,14.8c-7,9.8-10.4,23.9-10.4,42.3v103.1h-31.5V189.8c0-33.6-12.5-50.4-37.4-50.4c-14.2,0-24.9,5-32.1,15
			c-7.2,10-10.8,24.4-10.8,43.3v101.9h-31.5V116.2z"/>
		<path d="M836.9,111.1c13.6,0,25.8,2.4,36.6,7.1c10.8,4.7,19.8,11.3,27.2,19.9c7.3,8.5,12.9,18.5,16.7,29.9
			c3.8,11.4,5.7,23.8,5.7,37.2v8.7H780.2c0.3,9.2,1.8,17.7,4.7,25.4c2.9,7.7,6.8,14.4,11.8,19.9c5,5.5,11,9.8,18.1,13
			c7.1,3.2,15.1,4.7,24,4.7c12.6,0,23.2-2.8,31.7-8.3c8.5-5.5,15.9-13.5,22.2-24l26,15.7c-8.4,14.2-19.2,25.2-32.3,33.1
			c-13.1,7.9-29.4,11.8-48.8,11.8c-13.6,0-26-2.4-37-7.1c-11-4.7-20.5-11.3-28.3-19.9c-7.9-8.5-14-18.8-18.3-30.7
			c-4.3-11.9-6.5-25.1-6.5-39.6c0-14.2,2.2-27.2,6.5-39c4.3-11.8,10.4-22,18.3-30.7c7.9-8.7,17.2-15.4,28.1-20.1
			C811.4,113.4,823.5,111.1,836.9,111.1z M782.2,187.8h108.6c-1.3-13.6-6.7-25.1-16.1-34.4c-9.4-9.3-21.9-14-37.4-14
			c-15,0-27.2,4.5-36.8,13.6C790.9,162,784.8,173.6,782.2,187.8z"/>
	</g>
	<path class="st0" d="M957.8,112.2h48.4l48.4,109.4l48.4-109.4h48.8l-97.2,199.1h-0.8L957.8,112.2z"/>
	<path class="st0" d="M1170.3,30.8c0-7.6,2.8-14.2,8.3-19.7c5.5-5.5,12.1-8.3,19.7-8.3c7.9,0,14.6,2.8,20.3,8.3
		c5.6,5.5,8.5,12.1,8.5,19.7c0,7.6-2.8,14.2-8.3,19.9c-5.5,5.6-12.2,8.5-20.1,8.5c-8.1,0-14.9-2.8-20.3-8.5
		C1173,45,1170.3,38.4,1170.3,30.8z"/>
	<path class="st0" d="M351.7,30.8c0-7.6,2.8-14.2,8.3-19.7c5.5-5.5,12.1-8.3,19.7-8.3c7.9,0,14.6,2.8,20.3,8.3
		c5.6,5.5,8.5,12.1,8.5,19.7c0,7.6-2.8,14.2-8.3,19.9c-5.5,5.6-12.2,8.5-20.1,8.5c-8.1,0-14.9-2.8-20.3-8.5
		C354.3,45,351.7,38.4,351.7,30.8z"/>
	<rect x="1177" y="112.2" class="st0" width="43.3" height="187.3"/>
	<path class="st0" d="M1253.7,268.1l32.7-24.8c3.9,6.8,8.8,12.3,14.6,16.3c5.8,4.1,12.6,6.1,20.5,6.1c7.1,0,12.6-1.5,16.5-4.5
		c3.9-3,5.9-7.4,5.9-13.2c0-2.9-0.6-5.5-1.8-7.9s-3.2-4.7-6.1-7.1c-2.9-2.4-6.8-4.9-11.8-7.5c-5-2.6-11.3-5.6-18.9-9.1
		c-16-7.3-27.3-15.4-33.8-24.2c-6.6-8.8-9.8-19.5-9.8-32.1c0-8.1,1.6-15.5,4.7-22c3.1-6.6,7.4-12.1,12.8-16.7
		c5.4-4.6,11.7-8.1,18.9-10.6c7.2-2.5,15-3.7,23.4-3.7c13.6,0,25.5,2.5,35.6,7.5c10.1,5,18,11.7,23.8,20.1l-31.9,25.6
		c-2.9-3.7-6.9-7-12-9.8c-5.1-2.9-10.4-4.3-15.9-4.3c-5.5,0-9.8,1.2-13,3.5c-3.1,2.4-4.7,5.5-4.7,9.4c0,2.1,0.5,4.1,1.6,5.9
		c1,1.8,3,3.8,5.9,5.9c2.9,2.1,6.9,4.5,12,7.1c5.1,2.6,11.7,5.8,19.9,9.4c16.5,7.6,27.8,15.9,33.8,25c6,9.1,9.1,19.9,9.1,32.5
		c0,9.2-1.6,17.5-4.7,25c-3.1,7.5-7.6,13.8-13.4,19.1c-5.8,5.3-12.6,9.2-20.5,12c-7.9,2.8-16.4,4.1-25.6,4.1
		c-17.8,0-32.4-3.8-43.7-11.4C1266.5,286.1,1258.5,277.5,1253.7,268.1z"/>
	<path class="st0" d="M1417.9,30.8c0-7.6,2.8-14.2,8.3-19.7c5.5-5.5,12.1-8.3,19.7-8.3c7.9,0,14.6,2.8,20.3,8.3
		c5.6,5.5,8.5,12.1,8.5,19.7c0,7.6-2.8,14.2-8.3,19.9c-5.5,5.6-12.2,8.5-20.1,8.5c-8.1,0-14.9-2.8-20.3-8.5
		C1420.5,45,1417.9,38.4,1417.9,30.8z"/>
	<rect x="1424.5" y="112.2" class="st0" width="43.3" height="187.3"/>
	<path class="st0" d="M1509.6,204.7c0-13.4,2.4-26,7.1-37.8c4.7-11.8,11.5-22.1,20.3-30.9c8.8-8.8,19.3-15.8,31.5-21.1
		c12.2-5.2,25.8-7.9,40.7-7.9s28.5,2.6,40.7,7.7c12.2,5.1,22.7,12.1,31.5,21.1c8.8,8.9,15.6,19.4,20.5,31.5
		c4.9,12.1,7.3,25.1,7.3,39c0,13.9-2.4,26.9-7.3,39c-4.9,12.1-11.7,22.5-20.5,31.3c-8.8,8.8-19.4,15.7-31.7,20.9
		c-12.3,5.1-26.1,7.7-41.3,7.7c-14.7,0-28.1-2.6-40.3-7.7c-12.2-5.1-22.6-12.1-31.3-21.1c-8.7-8.9-15.3-19.5-20.1-31.9
		C1511.9,232.1,1509.6,218.9,1509.6,204.7z M1553.6,205.5c0,18.6,5,33.5,15,44.5c10,11,23.5,16.5,40.5,16.5
		c16.8,0,30.3-5.5,40.5-16.5c10.2-11,15.3-25.6,15.3-43.7c0-17.8-5.1-32.3-15.2-43.5c-10.1-11.1-23.7-16.7-40.7-16.7
		c-8.1,0-15.6,1.4-22.4,4.3c-6.8,2.9-12.7,7-17.7,12.4c-5,5.4-8.8,11.7-11.4,18.9C1554.9,188.9,1553.6,196.9,1553.6,205.5z"/>
	<path class="st0" d="M1793.7,112.2v20.1h0.8c6.8-7.9,14.8-14,23.8-18.5c9.1-4.5,20-6.7,32.9-6.7c21.8,0,38,6.8,48.6,20.3
		c10.6,13.5,15.9,32.6,15.9,57.3v114.9h-43.3V194.9c0-18.1-2.9-30.8-8.7-38c-5.8-7.2-14.7-10.8-26.8-10.8
		c-13.4,0-23.9,4.5-31.7,13.4c-7.7,8.9-11.6,24.3-11.6,46v94.1h-43.3V112.2H1793.7z"/>
</g>
<g>
</g>
<g>
</g>
<g>
</g>
<g>
</g>
<g>
</g>
<g>
</g>
<g>
</g>
<g>
</g>
<g>
</g>
<g>
</g>
<g>
</g>
<g>
</g>
<g>
</g>
<g>
</g>
<g>
</g>
</svg>
