<?xml version="1.0" encoding="utf-8"?>
<svg version="1.0" id="Laag_1" data-name="Laag 1" xmlns="http://www.w3.org/2000/svg" viewBox="0 0 500 500"><defs><style>.cls-1{fill:#e51515;}.cls-2{fill:#fff;}.cls-3{fill:#001511;}</style></defs><path class="cls-1" d="M176.2,333.82q-30.69-32.16-30.68-75.59T177,183.4a108.82,108.82,0,0,1,30.55-21.82A108.25,108.25,0,0,0,161.79,152Q118.37,152,87,183.4T55.53,258.23q0,43.44,30.68,75.59T163.29,366a105,105,0,0,0,44.51-9.36A102.27,102.27,0,0,1,176.2,333.82Z"/><path class="cls-1" d="M259.63,333.82a121.6,121.6,0,0,1-9.88-11.73,126.12,126.12,0,0,1-10.12,11.73,107.09,107.09,0,0,1-31.83,22.82Q228.26,366,253.28,366a106,106,0,0,0,41.25-7.92A101.39,101.39,0,0,1,259.63,333.82Z"/><path class="cls-1" d="M249.75,195.54a119.53,119.53,0,0,1,10.62-12.14,107.71,107.71,0,0,1,33.79-23.28A109.23,109.23,0,0,0,251.78,152a102.3,102.3,0,0,0-44.28,9.61,111.12,111.12,0,0,1,31.38,21.82A120,120,0,0,1,249.75,195.54Z"/><path class="cls-2" d="M239.63,333.82a126.12,126.12,0,0,0,10.12-11.73Q228.95,294,228.94,258.23q0-35.3,20.81-62.69a120,120,0,0,0-10.87-12.14,111.12,111.12,0,0,0-31.38-21.82A108.82,108.82,0,0,0,177,183.4q-31.44,31.44-31.43,74.83t30.68,75.59a102.27,102.27,0,0,0,31.6,22.82A107.09,107.09,0,0,0,239.63,333.82Z"/><path class="cls-1" d="M412.29,183.4Q380.1,152,335.21,152a103.12,103.12,0,0,0-41,8.15,110,110,0,0,1,34.71,23.28q32.16,31.44,32.18,74.83t-31.43,75.59a106.1,106.1,0,0,1-35.09,24.26A109.35,109.35,0,0,0,336.71,366q44.9,0,76.33-32.18t31.43-75.59Q444.47,214.85,412.29,183.4Z"/><path class="cls-3" d="M329.62,333.82q31.42-32.16,31.43-75.59T328.87,183.4a110,110,0,0,0-34.71-23.28,107.71,107.71,0,0,0-33.79,23.28,119.53,119.53,0,0,0-10.62,12.14q21.3,27.39,21.31,62.69a103,103,0,0,1-21.31,63.86,121.6,121.6,0,0,0,9.88,11.73,101.39,101.39,0,0,0,34.9,24.26A106.1,106.1,0,0,0,329.62,333.82Z"/><path class="cls-1" d="M249.75,322.09a103,103,0,0,0,21.31-63.86q0-35.3-21.31-62.69-20.81,27.39-20.81,62.69Q228.94,294,249.75,322.09Z"/></svg>